<svg id="Layer_1" data-name="Layer 1" xmlns="http://www.w3.org/2000/svg" viewBox="0 0 961.64 465.28"><defs><style>.cls-1{fill:#ea4335;}.cls-2{fill:#4285f4;}.cls-3{fill:#fbbc04;}.cls-4{fill:#0f9d58;}</style></defs><title>google_developers_logomark_color (1)</title><path class="cls-1" d="M248.88,242.47,405,152.31A76.84,76.84,0,0,0,328.2,19.22L58.37,175Z" transform="translate(-19.94 -8.92)"/><path class="cls-2" d="M366.55,474.19A76.85,76.85,0,0,0,405,330.8L135.2,175A76.83,76.83,0,1,0,58.37,308.1L328.2,463.89A76.56,76.56,0,0,0,366.55,474.19Z" transform="translate(-19.94 -8.92)"/><path class="cls-3" d="M635,474.19a76.54,76.54,0,0,0,38.35-10.3L943.14,308.1,755.05,239.25,596.47,330.8A76.85,76.85,0,0,0,635,474.19Z" transform="translate(-19.94 -8.92)"/><path class="cls-4" d="M904.65,318.41A76.84,76.84,0,0,0,943.14,175L673.31,19.22a76.84,76.84,0,0,0-76.84,133.09L866.31,308.1A76.54,76.54,0,0,0,904.65,318.41Z" transform="translate(-19.94 -8.92)"/></svg>